<svg xmlns="http://www.w3.org/2000/svg" viewBox="0 0 199.814 245.617">
  <defs>
    <style>
      .cls-1 {
        fill: #000fff;
      }
    </style>
  </defs>
  <path id="주황_종이_고정하는_파랑테이프_위_" data-name="주황 종이 고정하는 파랑테이프 (위)" class="cls-1" d="M204.887,41.071a8.151,8.151,0,0,1-3.428-4.6c-.393-1.921,1.4-4.048.562-5.7-2.023-3.843-8.766-2.951-10.115-7.548-.843-3.019,1.742-5.833,3.709-8.646a29.787,29.787,0,0,0-7.98-3.431c-2.754-.755-5.957-1.372-7.418-3.843-1.236-2.127-1.124-4.735-.562-7.411L0,94.387H.112a29.444,29.444,0,0,1,4.833,2.2c1.236.549.9,2.333.169,3.5-1.068,1.715-3.147,4.6-2.866,6.519.225,1.51,2.529,1.715,3.821,1.99a70.887,70.887,0,0,1,12.194,3.225c1.292.48,1.686,1.715,1.124,3.156-1.573,3.911-1.967,7.891-3.259,11.871,1.8.549,4.1.206,6.013.48,2.641.274,4.945,1.3,5.9,3.774.506,1.372.562,2.882,1.236,4.254a15.055,15.055,0,0,0,2.7,3.5,29.169,29.169,0,0,0,2.529,2.127l177.914-93.6C209.945,45.257,207.472,43.129,204.887,41.071Z" transform="translate(134.079 0.031) rotate(72)"/>
</svg>
