<svg xmlns="http://www.w3.org/2000/svg" viewBox="0 0 1226.71 938.37"><defs><style>.cls-1{fill:blue;}</style></defs><title>파랑쓰</title><g id="레이어_2" data-name="레이어 2"><g id="레이어_1-2" data-name="레이어 1"><path class="cls-1" d="M1153.8,878.47c-1.3-11.77-1.7-24.14,5.06-33.16,6.54-8.72,23.07-6.5,26.3-16.25,7.75-23.44-24.35-55.34-10.42-77.66,9-14.51,32.16-10.68,52-9.95a230.17,230.17,0,0,0-19-52.88c-8.23-16.65-19.24-35.52-14.89-51.38,3.76-13.71,15.12-21.82,29-28L69.37,0l.28.5c5.43,10.6,7.5,21.64,11.11,32.35,2.85,8.47-6.13,12.75-14.15,12.87-11.73.17-32.61-.53-39.36,7.21-5.38,6.17,3.29,18.78,7.61,26.44,14.13,25,27.8,48.17,37.64,74,3.15,8.28,0,14.51-8.69,16.45C40.67,175,22.24,186.48,0,192.87,5.12,204,16.15,214.82,23.21,225.32,33,240,38.45,255.37,32.06,268.52c-3.57,7.34-9.89,12.82-12.67,20.66S16,306.07,16.13,314.93c.13,6.68.71,13.44,1.41,20.22L1158.59,938.37C1157.19,918.44,1156,898.56,1153.8,878.47Z"/></g></g></svg>