<svg xmlns="http://www.w3.org/2000/svg" viewBox="0 0 326.307 231.798">
  <defs>
    <style>
      .cls-1 {
        fill: #00ff1a;
      }
    </style>
  </defs>
  <path id="파란_배경_위_초록_테이프" data-name="파란 배경 위 초록 테이프" class="cls-1" d="M298.591,59.9c-2.211-1.7-4.34-3.7-5-6.7-.573-2.8,2.047-5.9.819-8.3-2.948-5.6-12.776-4.3-14.741-11-1.228-4.4,2.539-8.5,5.405-12.6a43.41,43.41,0,0,0-11.629-5c-4.013-1.1-8.681-2-10.81-5.6-1.8-3.1-1.638-6.9-.819-10.8L0,137.6H.164c2.539.7,4.75,2.1,7.043,3.2,1.8.8,1.31,3.4.246,5.1-1.556,2.5-4.586,6.7-4.177,9.5.328,2.2,3.685,2.5,5.569,2.9,6.224,1.3,12.039,2.4,17.771,4.7,1.884.7,2.457,2.5,1.638,4.6-2.293,5.7-2.866,11.5-4.75,17.3,2.621.8,5.978.3,8.763.7,3.849.4,7.207,1.9,8.6,5.5.737,2,.819,4.2,1.8,6.2a21.94,21.94,0,0,0,3.931,5.1,42.514,42.514,0,0,0,3.685,3.1L309.565,69.1C305.962,66,302.358,62.9,298.591,59.9Z" transform="matrix(0.996, -0.087, 0.087, 0.996, 0.009, 27.08)"/>
</svg>
