<svg xmlns="http://www.w3.org/2000/svg" viewBox="0 0 254.672 290.853">
  <defs>
    <style>
      .cls-1 {
        fill: #00ff1a;
      }
    </style>
  </defs>
  <path id="흰_종이_고정하는_초록_테이프_오_" data-name="흰 종이 고정하는 초록 테이프(오)" class="cls-1" d="M240.991,58.317a11.614,11.614,0,0,1-4.032-6.523c-.463-2.726,1.652-5.744.661-8.081-2.38-5.452-10.311-4.187-11.9-10.71-.991-4.284,2.049-8.276,4.362-12.268a32.238,32.238,0,0,0-9.386-4.868c-3.239-1.071-7.006-1.947-8.725-5.452C210.52,7.4,210.652,3.7,211.313-.1L0,133.966H.132a32.146,32.146,0,0,1,5.684,3.116c1.454.779,1.058,3.31.2,4.965-1.256,2.434-3.7,6.523-3.371,9.249.264,2.142,2.974,2.434,4.495,2.823,5.023,1.266,9.716,2.337,14.343,4.576,1.52.682,1.983,2.434,1.322,4.479-1.851,5.55-2.313,11.2-3.834,16.844,2.115.779,4.825.292,7.072.682,3.107.389,5.817,1.85,6.94,5.355.595,1.947.661,4.089,1.454,6.036a21.378,21.378,0,0,0,3.173,4.965,36.865,36.865,0,0,0,2.974,3.018l209.264-132.8C246.939,64.256,244.031,61.238,240.991,58.317Z" transform="translate(0.097 242.45) rotate(-76)"/>
</svg>
