<svg xmlns="http://www.w3.org/2000/svg" viewBox="0 0 613.97 333.56"><defs><style>.cls-1{fill:#00ff12;}</style></defs><title>초록쓰</title><g id="레이어_2" data-name="레이어 2"><g id="레이어_1-2" data-name="레이어 1"><path class="cls-1" d="M592.33,97.34c-4.34-2.8-8.65-6.07-9.88-10.86-1.18-4.62,4.06-9.63,1.62-13.41-5.85-9.1-25.38-7-29.18-17.88-2.47-7.07,5.1-13.87,10.72-20.4a100.27,100.27,0,0,0-23.09-8.14c-7.89-1.79-17.28-3.26-21.48-9.11-3.63-5-3.3-11.15-1.63-17.54L0,223.53l.24,0c5.08,1.08,9.39,3.42,14,5.15,3.65,1.37,2.66,5.6.53,8.36-3.12,4-9,10.93-8.23,15.36.63,3.53,7.26,4.06,11,4.7,12.32,2.1,23.89,3.84,35.33,7.63,3.66,1.21,4.93,4,3.22,7.48-4.54,9.28-5.62,18.72-9.49,28,5.17,1.34,11.83.57,17.31,1.07,7.64.69,14.33,3.11,17.06,8.91,1.52,3.23,1.67,6.89,3.57,10a32.35,32.35,0,0,0,7.86,8.21c2.3,1.8,4.75,3.47,7.24,5.1L614,112.24C606.82,107.22,599.76,102.13,592.33,97.34Z"/></g></g></svg>